<?xml version="1.0" encoding="utf-8"?>
<!-- Generator: Adobe Illustrator 24.2.1, SVG Export Plug-In . SVG Version: 6.00 Build 0)  -->
<svg version="1.1" id="Layer_1" xmlns="http://www.w3.org/2000/svg" xmlns:xlink="http://www.w3.org/1999/xlink" x="0px" y="0px"
	 viewBox="0 0 391.7 495.7" style="enable-background:new 0 0 391.7 495.7;" xml:space="preserve">
<style type="text/css">
	.st0{fill-rule:evenodd;clip-rule:evenodd;fill:url(#SVGID_1_);}
	.st1{fill:#C1C1C1;}
	.st2{fill:#4D4D4D;}
	.st3{fill:#0047BC;}
	.st4{opacity:0.15;fill:#FFFFFF;enable-background:new    ;}
	.st5{fill:#FFFFFF;}
	.st6{fill:#868787;}
	.st7{fill:#333333;}
</style>
<g>
	
		<linearGradient id="SVGID_1_" gradientUnits="userSpaceOnUse" x1="-974.2236" y1="1398.3776" x2="-565.1408" y2="1398.3776" gradientTransform="matrix(0 1 1 0 -1202.5255 974.2236)">
		<stop  offset="0" style="stop-color:#0047BC"/>
		<stop  offset="2.530000e-02" style="stop-color:#044CBD"/>
		<stop  offset="0.354" style="stop-color:#2F82CC"/>
		<stop  offset="0.6376" style="stop-color:#4FAAD6"/>
		<stop  offset="0.8622" style="stop-color:#63C2DD"/>
		<stop  offset="1" style="stop-color:#6ACBDF"/>
	</linearGradient>
	<path class="st0" d="M388.7,188.2c-4.4,56.5-27.6,107.5-69.1,146.1c-46.7,43.3-103.9,85-166.4,72.6
		C89.2,394.2,47.6,335.3,21.9,275.4c-24.1-56.2-33.9-123.6,0-174.5c30.7-46.1,96.4-35.4,149.7-50.4c60-16.8,120.5-73.6,173.2-40.2
		C399.1,44.7,393.7,124.1,388.7,188.2z"/>
	<path class="st1" d="M76.4,424.1c2.8-7.2,4.4-14.6,5.3-22c0.4-3.7,0.6-7.5,0.7-11.2c-1.5-43.9-15-86.2-9.6-130.1
		c0.3-3.3,0.7-6.6,1.2-9.9c2-13.1,5.3-26.1,10.2-38.7c1.2-3.6,2.5-7.1,3.8-10.7c3.8-10.6,7.8-21.2,11.1-31.9
		c0.9-3.1,1.8-6.2,2.5-9.3c2-8.6,2.9-17.4,2-26.5c-0.1-1.3,0.9-2.4,2.2-2.3c12.7,0.8,21.6,12.7,24.3,23.7c1.6,5.7,1.7,11.2,2.5,17
		c0.4,2.9-0.2,5.6,0,8.5c0.8,6-1.2,12-2.1,17.9c-0.4,2.9-1,5.8-1.7,8.7c-13.4,27.5,4.6,34.2,19.9,56.5c1.9,2.8-4.6,23.1-2.6,25.9
		c9.3,16.5,21.8,32.7,39.4,39.3c3.1,1.1,6.4,1.6,9.8,1.6c17.8-1.5,34.8-3.2,52.6-3.2c5.1,0,15.5-3.5,15.3-0.9
		c-1.6,17-5.9,43.2-20.4,55.9c-19.5,18.7-33.1,33.1-49.1,54.1c-2.6,3.7-5.1,7.4-7.4,11.3c-6.8,11.8-12.1,47.6-12.1,47.6l-144-0.6
		c0,0,29.7-45.3,32.5-49.3c2.8-4,5.5-7.8,7.8-11.5C72.9,430.6,74.9,427.2,76.4,424.1z"/>
	<path class="st2" d="M129.8,361.7l111.7,12c9.7,1,18.4-6,19.5-15.7l26.3-245.3c1-9.7-6-18.4-15.7-19.5l-111.7-12
		c-9.7-1-18.4,6-19.5,15.7l-26.3,245.3C113,351.9,120.1,360.7,129.8,361.7z"/>
	
		<rect x="82.1" y="161.6" transform="matrix(0.1066 -0.9943 0.9943 0.1066 -43.6808 401.192)" class="st3" width="238.6" height="126.6"/>
	<polygon class="st4" points="125.6,336.5 277.2,113 251.3,350.4 	"/>
	<g>
		<path class="st1" d="M266.2,301c-10.3,5.3-42.1,11.1-38.6,22.2c3,14.5,49.8,7.5,59.5-4.1c6.6-8.6,5.7-19.2-6-28.1
			c-3.9-3-8.4-2.2-12.5-4.7L266.2,301z"/>
		<path class="st1" d="M270.8,257.1c-10.6,7.7-31.3,12-25.4,23.7c5.9,15.7,44.6,8.8,53.4-5.9c5.9-10.8,2.7-23.5-11.9-31.4
			c-4.9-2.6-8.5-4.7-13.6-6.8L270.8,257.1z"/>
		<path class="st1" d="M275.8,214.7c-10.6,7.7-29.6,27.2-23.7,39c5.9,15.7,47.3-18.1,56.1-32.8c5.9-10.8,10.2-26.3-4.4-34.2
			c-4.9-2.6-18.7-4.7-23.7-6.8L275.8,214.7z"/>
		<path class="st1" d="M284.3,141.8c17.8-5.9,28.6-10.2,47.5-10.2c5.9,0,9.9,7.8,8.5,11c-8.5,18.6-22.9,23.7-40.5,31.9
			c-7.9,3.7-16.5,6.8-16.5,6.8l-3.2-1.3L284.3,141.8z"/>
		<path class="st5" d="M106.5,136.7c0.6,0,1.2,0.2,1.7,0.5c13.3,8,11.5,26.9,3.2,36.9c-0.9,1.7-6.8-0.9-11-1.7
			c4.1-10.5,6.6-22.6,4.7-34C104.9,137.4,105.6,136.7,106.5,136.7L106.5,136.7z"/>
		<path class="st5" d="M255.1,252.7c0-2,0.4-4,1.2-5.8c2.7-6.1,7.8-11,13.6-11c2.5,0,8.5,5.9,6.8,8.5c-3.1,6.3-11.4,14-19.6,11.1
			C255.9,255,255.1,253.9,255.1,252.7L255.1,252.7z"/>
		<path class="st5" d="M261.8,269.8c-6.3,2.5-15.6,4.2-13.1,11.9c2.5,7.6,14.4,4.2,22,2.5c-2.5-4.2-4.2-10.2-6.4-14.4H261.8z"/>
		<path class="st5" d="M246.6,315.7c-5.5,3.3-19.9,5.9-12.2,11.8c5.1,4.2,12.7,1.7,19.6,1.8L246.6,315.7z"/>
		<polygon class="st6" points="275.8,214.7 286,204.5 276.7,207.8 		"/>
		<polygon class="st6" points="270.8,257.1 286,243.5 271.2,253.6 		"/>
		<polygon class="st6" points="266.2,301 275,288.6 268.1,289.6 		"/>
		<polygon class="st6" points="287.3,140.8 276.7,207.9 284.2,141.4 		"/>
	</g>
	<path class="st7" d="M194.7,364.8l-12.8-1.4c-2.8-0.3-4.8-2.8-4.5-5.6l0.4-3.4c0.3-2.8,2.8-4.8,5.6-4.5l12.8,1.4
		c2.8,0.3,4.8,2.8,4.5,5.6l-0.4,3.4C199.9,363.1,197.4,365.1,194.7,364.8z"/>
	<path class="st5" d="M231.9,255.3L231.9,255.3c-0.4,0.4-0.7,0.7-1.1,1c-10.4,9.5-26.5,9.2-36.6-0.8l-0.1-0.1
		c-4.7-4.7-7.3-10.8-7.7-16.9c0,0,0,0,0-0.1c-0.5-7.4,2.1-15,7.7-20.6l4,4c0,0,0,0.1,0.1,0.1c0,0,0.1,0.1,0.1,0.1
		c0.1,0.1,0.2,0.1,0.3,0.2c0.5,0.2,1,0.1,1.4-0.2l0,0c0.2-0.2,0.3-0.5,0.3-0.9l0-0.4l0.1-7.5v0l0.2-11.8V201v-0.1
		c0-0.3-0.1-0.6-0.4-0.9s-0.5-0.4-0.9-0.4h-0.1h-0.2l-9.1,0.1h0l-10.2,0.2h-0.3h-0.2c-0.3,0-0.5,0.1-0.7,0.3l0,0
		c-0.4,0.4-0.5,0.9-0.2,1.4c0,0.1,0.1,0.2,0.2,0.3c0,0,0,0.1,0.1,0.1c0,0,0.1,0.1,0.1,0.1l3.9,3.9c-0.2,0.2-0.4,0.4-0.5,0.5
		c-0.2,0.3-0.5,0.5-0.7,0.8c-0.2,0.2-0.4,0.5-0.6,0.7c-0.2,0.3-0.5,0.6-0.7,0.9c-4.1,5-7,10.7-8.5,16.6c0,0.1,0,0.2-0.1,0.3
		c0,0,0,0,0,0c0,0.1-0.1,0.3-0.1,0.4c-0.1,0.4-0.2,0.7-0.5,1c0,0.1-0.1,0.1-0.2,0.2c0,0-0.1,0.1-0.1,0.1c-1,0.8-2.4,0.8-3.3,0l0,0
		c-0.1-0.1-0.1-0.1-0.2-0.2c0,0-0.1-0.1-0.2-0.2c0,0-0.1-0.1-0.1-0.1c0-0.1-0.1-0.1-0.1-0.2c-7.1-10.4-6-24.6,3.2-33.8
		c0.2-0.2,0.4-0.4,0.5-0.5c0.2-0.2,0.3-0.3,0.5-0.5c0.3-0.3,0.6-0.6,1-0.8c0.5-0.4,1-0.8,1.5-1.1c10.4-7.3,24.7-6.3,34,2.9l0.1,0.1
		c4.7,4.7,7.3,10.7,7.7,16.9c0,0,0,0,0,0.1c0.4,6.3-1.4,12.8-5.4,18c-0.1,0.2-0.3,0.3-0.4,0.5l0,0c-0.3,0.4-0.6,0.7-0.9,1
		c-0.2,0.2-0.3,0.4-0.5,0.5s-0.3,0.3-0.5,0.5l0,0l-4.1-4.1c-0.5-0.5-1.2-0.5-1.7-0.1l-0.1,0.1c0,0,0,0,0,0c-0.1,0.1-0.2,0.2-0.2,0.4
		c-0.1,0.1-0.1,0.2-0.1,0.4v0.2l-0.1,7.8v0l-0.2,12.2v0.2c0,0,0,0,0,0.1c0,0.3,0.1,0.5,0.4,0.7s0.5,0.3,0.7,0.4h0c0,0,0,0,0,0
		c0.1,0,0.2,0,0.3,0l9.2-0.1h0l10.7-0.2h0.2c0.1,0,0.2,0,0.4-0.1c0.1,0,0.2-0.1,0.3-0.2c0,0,0,0,0.1,0c0.5-0.5,0.5-1.3,0-1.8l-4-4
		c0,0,0,0,0,0c0.2-0.2,0.3-0.3,0.5-0.5c0.3-0.4,0.7-0.7,1-1.1l0,0c0.3-0.4,0.6-0.7,0.9-1c4.4-5.3,7.3-11.3,8.9-17.6
		c0-0.1,0.1-0.2,0.1-0.3c0.1-0.2,0.2-0.4,0.4-0.6c0,0,0-0.1,0.1-0.1c0,0,0,0,0,0l0.1-0.1c1-1,2.6-1,3.6,0c0.1,0.1,0.1,0.1,0.2,0.2
		c0,0.1,0.1,0.1,0.2,0.2c0.1,0.2,0.2,0.3,0.3,0.5l0,0c6.2,9.4,5.8,21.8-1.1,30.8c-0.2,0.3-0.5,0.6-0.7,0.9c-0.2,0.3-0.5,0.6-0.8,0.9
		c-0.1,0.1-0.2,0.2-0.3,0.3C232.2,255,232.1,255.1,231.9,255.3z"/>
</g>
</svg>
