<?xml version="1.0" encoding="utf-8"?>
<!-- Generator: Adobe Illustrator 24.2.1, SVG Export Plug-In . SVG Version: 6.00 Build 0)  -->
<svg version="1.1" id="Layer_1" xmlns="http://www.w3.org/2000/svg" xmlns:xlink="http://www.w3.org/1999/xlink" x="0px" y="0px"
	 viewBox="0 0 407.9 495.5" style="enable-background:new 0 0 407.9 495.5;" xml:space="preserve">
<style type="text/css">
	.st0{fill-rule:evenodd;clip-rule:evenodd;fill:url(#SVGID_1_);}
	.st1{fill:#CCCCCC;}
	.st2{fill:#C1C1C1;}
	.st3{fill:#1A2E35;}
	.st4{fill:#05346D;}
	.st5{opacity:0.2;enable-background:new    ;}
	.st6{fill:#0047BC;}
	.st7{fill:#1F68C1;}
	.st8{fill:#333333;}
	.st9{opacity:0.2;fill:#4D4D4D;enable-background:new    ;}
	.st10{fill:#787878;}
	.st11{fill:#082A5B;}
</style>
<g>
	
		<linearGradient id="SVGID_1_" gradientUnits="userSpaceOnUse" x1="0" y1="303.622" x2="401.155" y2="303.622" gradientTransform="matrix(1 0 0 -1 0 495.6736)">
		<stop  offset="0" style="stop-color:#0047BC"/>
		<stop  offset="2.530000e-02" style="stop-color:#044CBD"/>
		<stop  offset="0.354" style="stop-color:#2F82CC"/>
		<stop  offset="0.6376" style="stop-color:#4FAAD6"/>
		<stop  offset="0.8622" style="stop-color:#63C2DD"/>
		<stop  offset="1" style="stop-color:#6ACBDF"/>
	</linearGradient>
	<path class="st0" d="M184.5,2.9C239.9,7.3,289.9,30,327.8,70.7c42.5,45.8,83.3,101.9,71.2,163.2c-12.4,62.7-70.2,103.5-128.9,128.7
		c-55.1,23.7-121.2,33.3-171.1,0c-45.2-30.1-34.7-94.5-49.4-146.9C33.1,156.9-22.6,97.6,10.1,45.9C43.9-7.3,121.7-2,184.5,2.9z"/>
	<g>
		<g>
			<ellipse id="_x3C_Path_x3E__26_" class="st1" cx="228.3" cy="475.9" rx="179.6" ry="19.8"/>
			<g>
				<polygon class="st2" points="183.8,470.6 194.1,470.5 198.1,400.1 183.8,400.1 				"/>
				<polygon class="st2" points="233.4,469.9 243.5,466.8 231.7,395.1 214.9,398.2 				"/>
				<path class="st3" d="M243.1,463.8l-11.2,5.8c-0.4,0.2-0.6,0.6-0.5,1l2.4,9.1c0.2,1,1.3,1.4,2.2,0.9c3.6-1.9,6.1-3.5,10.7-5.9
					c2.8-1.5,11.4-5.5,15.3-7.5c3.8-2,2.4-6.1,0.6-5.6c-7.9,2.1-14.4,2.7-17.7,1.9C244.3,463.4,243.7,463.5,243.1,463.8z"/>
				<path class="st3" d="M194.4,469.3l-11.3,0.2c-0.4,0-0.8,0.3-0.9,0.7l-1.9,9.3c-0.2,1,0.5,1.9,1.5,1.8c4.1-0.1,10-0.5,15.1-0.5
					c6-0.1,7.8,0.2,14.8,0c4.3-0.1,5.4-4.4,3.6-4.8c-8.1-1.7-11.3-1.7-18.4-6C196.1,469.6,195.3,469.3,194.4,469.3z"/>
				<path class="st4" d="M174.1,238.8l36.4-2.7c0,0,4.7,74.7,4.4,106.4c-0.4,33-15.4,59.2-15.4,59.2l-17.6,0.3
					c0,0,1.4-23.8,1.4-56.1C183.3,302.3,174.1,238.8,174.1,238.8"/>
				<path class="st5" d="M188.2,316.5c0.5,2.2,6.9,49.8,11.2,85.2c4.6-12.5,9.3-18.5,13.5-32.8L188.2,316.5z"/>
				<path class="st4" d="M190.9,237.6c0,0,27.7,67.9,34,97.7c6.9,32.6,6.9,59.9,6.9,59.9l-18.8,2.9c0,0-3.3-6.5-11.3-38
					c-9.1-35.9-44.9-92.7-46.5-119.9C190.9,237.6,190.9,237.6,190.9,237.6z"/>
				<polygon class="st6" points="235.3,399.4 211.9,404.8 209,395.8 234.5,391.5 				"/>
				<polygon class="st6" points="201.7,405.1 180.7,405.5 180.6,398.7 204,398 				"/>
				<g>
					<path class="st7" d="M247,463.8c-0.9,0.4-1.9,0.7-2.6,0.9c-0.1,0-0.2,0-0.3-0.1s-0.1-0.2,0-0.3c0.2-0.4,2.3-3.8,3.5-3.8
						c0.2,0,0.5,0.1,0.7,0.4c0.3,0.5,0.3,0.9,0.1,1.4C248.3,463,247.7,463.4,247,463.8z M244.9,464.1c1.7-0.5,2.9-1.2,3.2-1.9
						c0.1-0.3,0.1-0.6-0.1-1c-0.1-0.2-0.2-0.2-0.3-0.2C247.1,461.1,245.8,462.8,244.9,464.1z"/>
					<path class="st7" d="M244.5,464.7c0,0-0.1,0-0.1,0c-0.1,0-0.2-0.1-0.2-0.2c0-0.1-1.2-2.9-0.6-4.3c0.2-0.4,0.4-0.6,0.8-0.8l0,0
						c0.6-0.2,0.9,0,1,0.2C246.1,460.6,245.3,463.6,244.5,464.7C244.6,464.7,244.5,464.7,244.5,464.7z M244.4,460
						c-0.2,0.1-0.3,0.2-0.4,0.5c-0.4,0.9,0.1,2.6,0.4,3.5c0.6-1.2,1-3.3,0.5-3.9c0,0-0.1-0.2-0.4-0.1l0,0
						C244.5,460,244.5,460,244.4,460z"/>
					<path class="st7" d="M195.4,470.7c-0.1,0-0.1-0.1-0.2-0.2c0-0.1,0-0.2,0.1-0.3c0.5-0.2,4.6-2.4,5.9-1.8
						c0.2,0.1,0.4,0.4,0.4,0.7l0,0c0,0.5-0.1,0.9-0.4,1.2C200.1,471.4,197.1,471,195.4,470.7C195.4,470.7,195.4,470.7,195.4,470.7z
						 M200.9,468.9c-0.8-0.3-3,0.6-4.7,1.5c2.3,0.3,4,0.2,4.6-0.4c0.2-0.2,0.3-0.5,0.3-0.8C201.2,469.1,201.1,469,200.9,468.9
						C201,468.9,201,468.9,200.9,468.9z"/>
					<path class="st7" d="M195.4,470.7C195.4,470.7,195.4,470.7,195.4,470.7c-0.1-0.1-0.2-0.2-0.2-0.2c0-0.1,0.2-2.9,1.5-4
						c0.4-0.3,0.9-0.5,1.4-0.4l0,0c0.7,0.1,0.9,0.4,0.9,0.7c0.2,1.2-2.2,3.5-3.5,4C195.5,470.7,195.5,470.7,195.4,470.7z
						 M198.4,466.5c-0.1,0-0.1,0-0.2,0l0,0c-0.4,0-0.7,0.1-1,0.3c-0.9,0.7-1.2,2.4-1.3,3.2c1.3-0.8,2.9-2.6,2.8-3.3
						C198.6,466.7,198.6,466.6,198.4,466.5z M198.1,466.2L198.1,466.2L198.1,466.2z"/>
				</g>
				<path class="st2" d="M210.1,154.6c2.4,4.7,5,9.7,7.7,14.5c2.7,4.8,5.5,9.5,8.5,14c0.8,1.1,1.5,2.2,2.3,3.3l1.9,2.6
					c0.4,0.5,0.6,0.8,0.7,0.9c0.1,0.1,0.1,0.3,0.6,0.3c1,0.1,3.1-1,4.9-2.4c1-0.7,1.9-1.5,2.9-2.4c0.9-0.9,1.9-1.9,2.7-2.7l6.8,3.8
					c-0.6,1.6-1.3,3-2,4.4c-0.8,1.4-1.6,2.8-2.6,4.2c-1,1.4-2.2,2.7-3.6,3.9c-1.4,1.3-3.2,2.4-5.5,3.3c-2.2,0.8-5.1,1.1-7.9,0.4
					c-2.7-0.7-4.9-2.1-6.6-3.5c-0.5-0.4-0.8-0.7-1.2-1.1l-0.6-0.6l-0.4-0.5l-1.5-1.7c-1-1.1-1.9-2.3-2.9-3.5
					c-3.7-4.8-7.1-9.7-10.1-14.8c-1.5-2.5-3-5.1-4.4-7.7c-1.4-2.6-2.7-5.2-4-8.1L210.1,154.6z"/>
				<g>
					<g>
						<path class="st8" d="M191.5,154.7c-2.8,9.5,16.9,35.5,16.9,35.5l19.9-12.8c0,0-5.8-13.2-13.8-23.4
							C206.4,143.6,194.6,144.2,191.5,154.7z"/>
					</g>
				</g>
				<path class="st5" d="M203.6,165.8c4.1,1.8,10.1,11.6,13.2,18.9l-8.4,5.4c0,0-7.6-10-12.7-19.9
					C198.4,167.4,201.5,164.9,203.6,165.8z"/>
				<path class="st2" d="M241.1,184.6l7.2-11.6l6.3,10c0,0-2.3,4.4-6.9,5.7L241.1,184.6z"/>
				<path class="st2" d="M258.4,173.1l0,3.6c0,1.1-0.4,2.2-1.1,3.1l-2.6,3.2l-6.3-10l6.5-2.4C256.5,169.9,258.4,171.2,258.4,173.1z"
					/>
				<g>
					<g>
						<path class="st8" d="M147.6,159.7c8.5,36.5,6.6,93.6,7.6,101.4c8.1-0.6,45-1.5,61.7-2.7c-1.6-58.8-13.6-111.7-13.6-111.7
							s-3.6-0.7-8.4-1.2c-1.5-0.2-3.2-0.3-4.9-0.4c-0.9-0.1-1.9-0.1-2.9-0.1c-6.3-0.1-16.5,0.9-23.5,1.8c-1.5,0.2-3,0.4-4.4,0.6
							c-1.4,0.2-2.7,0.5-3.9,0.7c-0.1,0-0.1,0-0.2,0C149.8,149.2,146.4,154.4,147.6,159.7z"/>
					</g>
				</g>
				<path class="st9" d="M157,167.4l-6.4,8.2c0,0.1,0,0.2,0,0.3c0.9,5.5,1.6,11,2.1,16.2C158.9,184.5,158,171,157,167.4z"/>
				<path class="st2" d="M166.3,130.5c1.3,5.6,1.2,11.8-2.8,16.2c4.4,3.8,10.2,8.1,19.2,7.8c9-0.4,7-6.4,4.4-9.5
					c-7.7-1.2-7.7-6.2-7.8-11.8c0-1.1-0.8-2.2-1.9-2.5l-8.5-2.7C167.5,127.5,166,128.9,166.3,130.5z"/>
				<path class="st5" d="M179.4,133.5l-8.5,1.1c0.2,0.4,0.4,0.7,0.6,1.1c1.6,2.6,5.2,4.3,8.9,4.9
					C179.4,138.6,179.4,136.1,179.4,133.5z"/>
				<path class="st2" d="M165,109.7c-1.3,10.2-2.5,16.1,1.6,22.3c6.2,9.2,19.6,7,23.9-2.7c3.9-8.7,5.3-24-3.8-29.8
					C177.6,93.7,166.3,99.5,165,109.7z"/>
				<path class="st3" d="M179.2,115.1c-0.1,0.8,0.2,1.6,0.7,1.7s1.1-0.5,1.2-1.3s-0.2-1.6-0.7-1.7
					C180,113.7,179.4,114.2,179.2,115.1z"/>
				<path class="st3" d="M189.4,117.2c-0.1,0.8,0.2,1.6,0.7,1.7s1.1-0.5,1.2-1.3s-0.2-1.6-0.7-1.7S189.6,116.4,189.4,117.2z"/>
				<path class="st10" d="M185.2,120.5c0,0,0.8,0.2,2.5,2.9c-1.7,1.1-3,0.3-3,0.3L185.2,120.5z"/>
				<path class="st3" d="M182.6,127.5c-3.2-0.3-4.8-2.5-4.8-2.6c-0.1-0.1,0-0.3,0.1-0.3s0.3,0,0.3,0.1c0,0,1.8,2.5,5.5,2.4
					c0.1,0,0.2,0.1,0.2,0.2c0,0.1-0.1,0.2-0.2,0.2C183.3,127.6,182.9,127.6,182.6,127.5z"/>
				<path class="st3" d="M178.2,111.4c-0.1,0-0.1-0.1-0.2-0.1c-0.2-0.2-0.2-0.5,0-0.7c2-1.8,4.2-1.3,4.3-1.3
					c0.3,0.1,0.4,0.3,0.4,0.6s-0.3,0.4-0.6,0.4l0,0c-0.1,0-1.8-0.4-3.4,1C178.6,111.4,178.4,111.4,178.2,111.4z"/>
				<path class="st3" d="M194.9,114.7c-0.1,0-0.3-0.2-0.3-0.3c-0.6-2.1-2.2-2.7-2.3-2.7c-0.3-0.1-0.4-0.4-0.3-0.6
					c0.1-0.3,0.4-0.4,0.6-0.3c0.1,0,2.2,0.8,3,3.4c0.1,0.3-0.1,0.5-0.3,0.6C195.1,114.7,195,114.7,194.9,114.7z"/>
				<g>
					<path class="st2" d="M164.2,162.9c-3.4,6.1-6.9,12.6-10,19c-3.1,6.4-6,13-8,19.4c-0.2,0.8-0.4,1.6-0.7,2.4
						c-0.1,0.4-0.2,0.9-0.3,1.1c0,0.2-0.1,0.4-0.1,0.6c-0.1,0.9-0.1,2,0.1,3.2c0.5,2.5,1.8,5.5,3.4,8.4c3.3,5.8,7.8,11.6,12.4,16.8
						l-5,6c-6.6-4.5-12.4-9.5-17.5-16.1c-2.5-3.3-4.8-7-6.3-11.6c-0.7-2.3-1.2-4.9-1.1-7.8c0-0.7,0.1-1.4,0.2-2.2
						c0.1-0.7,0.2-1.1,0.3-1.6c0.2-1,0.4-2,0.6-3c1.9-7.9,4.7-15.2,7.8-22.3c3.2-7.1,6.6-13.8,10.7-20.5L164.2,162.9z"/>
					<g>
						<g>
							<path class="st8" d="M153.4,148.8c-9.6,2.6-19,29.5-19,29.5l23.1,6.4c0,0,5.1-6.4,9.6-18.5C172,153.2,165,145.6,153.4,148.8z
								"/>
						</g>
					</g>
					<path class="st2" d="M156.6,232.2l10.5,2.8l-4.2,9.9c0,0-9.4-2-9.4-7.1L156.6,232.2z"/>
					<path class="st2" d="M172.4,245.4l-0.5,1.4c-0.9,2.3-3.8,2.9-5.6,1.2l-3.4-3.2l4.2-9.9l5,7.2
						C172.7,243.1,172.9,244.3,172.4,245.4z"/>
				</g>
				<path class="st6" d="M251.4,187.9l-8.4-0.1c-1.5,0-2.5-1.4-2.2-2.9l5.5-20.6l8.5,0.1c1.4,0,2.5,1.4,2.1,2.8L251.4,187.9z"/>
				<path class="st11" d="M252.5,187.9l-8.4-0.1c-1.5,0-2.5-1.4-2.2-2.9l5.5-20.6l8.4,0.1c1.5,0,2.5,1.4,2.1,2.9L252.5,187.9z"/>
				<path class="st3" d="M192.3,126.6c-0.7-0.6-5,0.1-7.3-1c-2.4-1.2-6.2-2.8-8.1-3.5c-1.9-0.7-2.5,1.3-5.1,3.5
					c-2.6,2.2-4.3-9.4-4.3-9.4c-13,20,6.8,24.5,9.4,24.7c18,2,12.9-3.6,12.9-3.6C189.4,132.5,193,127.2,192.3,126.6z M184.5,128.6
					c-0.3,0.7-2.1,0.4-6-1.1c-3.9-1.5-0.9-4,0-3.5c1.9,1.1,5.2,2.3,5.2,2.3C185.9,126.8,184.9,127.9,184.5,128.6z"/>
				<path class="st2" d="M158.5,116.1c0.4,2.8,2,5.1,3.8,6.5c2.8,2,4.5-0.1,4.7-3.4c0.2-2.9,0-7.5-3.3-8.3
					C160.6,110.2,158.1,113,158.5,116.1z"/>
			</g>
		</g>
	</g>
	<g transform="translate(0 -1)">
		<path class="st6" d="M272.3,130.8c-1.5-0.4-3.1,0.6-3.4,2.1c-0.4,1.5,0.6,3.1,2.1,3.4c8.8,2.1,12,5.2,12,6.8
			c0,3.4-11.3,8.5-28.4,8.5c-17.1,0-28.4-5.1-28.4-8.5c0-1.6,3.2-4.7,12-6.8c1.5-0.4,2.5-1.9,2.1-3.4c-0.4-1.5-1.9-2.5-3.4-2.1
			c-10.6,2.5-16.4,6.9-16.4,12.3c0,9.3,17.2,14.2,34.1,14.2s34.1-4.9,34.1-14.2C288.7,137.7,282.9,133.3,272.3,130.8"/>
		<path class="st6" d="M254.6,111.9c1.6,0,2.8-1.3,2.8-2.8s-1.3-2.8-2.8-2.8c-1.6,0-2.8,1.3-2.8,2.8S253,111.9,254.6,111.9"/>
		<path class="st6" d="M254.6,100.5c4.7,0,8.5,3.8,8.5,8.5s-3.8,8.5-8.5,8.5c-4.7,0-8.5-3.8-8.5-8.5S249.9,100.5,254.6,100.5
			 M250.9,142.1l1.2,2.3c0.5,1,1.5,1.6,2.5,1.6s2.1-0.6,2.5-1.6l2.5-4.9c3-6,6.7-11.7,10.2-17.3l1.6-2.5c2-3.2,3.1-6.8,3.1-10.6
			c0-5.7-2.4-11.1-6.6-14.8c-4.2-3.8-9.9-5.6-15.6-4.9c-8.8,1-16.1,8.1-17.4,16.9c-0.7,5.2,0.6,10.4,3.7,14.6
			C243.4,127.3,247.2,134.6,250.9,142.1"/>
	</g>
</g>
</svg>
