<?xml version="1.0" encoding="utf-8"?>
<!-- Generator: Adobe Illustrator 24.2.1, SVG Export Plug-In . SVG Version: 6.00 Build 0)  -->
<svg version="1.1" id="Layer_1" xmlns="http://www.w3.org/2000/svg" xmlns:xlink="http://www.w3.org/1999/xlink" x="0px" y="0px"
	 viewBox="0 0 448.4 495.7" style="enable-background:new 0 0 448.4 495.7;" xml:space="preserve">
<style type="text/css">
	.st0{fill-rule:evenodd;clip-rule:evenodd;fill:url(#SVGID_1_);}
	.st1{fill:#CCCCCC;}
	.st2{fill:#C1C1C1;}
	.st3{fill:#1A2E35;}
	.st4{fill:#0047BC;}
	.st5{opacity:0.2;fill:#4D4D4D;enable-background:new    ;}
	.st6{opacity:0.2;enable-background:new    ;}
	.st7{fill:#787878;}
	.st8{fill:#1F68C1;}
</style>
<g>
	
		<linearGradient id="SVGID_1_" gradientUnits="userSpaceOnUse" x1="698.6161" y1="-147.9476" x2="1114.6967" y2="-147.9476" gradientTransform="matrix(0.7071 -0.7071 -0.7071 -0.7071 -496.7349 718.8945)">
		<stop  offset="0" style="stop-color:#0047BC"/>
		<stop  offset="2.530000e-02" style="stop-color:#044CBD"/>
		<stop  offset="0.354" style="stop-color:#2F82CC"/>
		<stop  offset="0.6376" style="stop-color:#4FAAD6"/>
		<stop  offset="0.8622" style="stop-color:#63C2DD"/>
		<stop  offset="1" style="stop-color:#6ACBDF"/>
	</linearGradient>
	<path class="st0" d="M98.5,55.5C142.3,18,195.7-2,253.3,0.2C318,2.6,389.2,13.8,425.2,67.6c36.9,55.1,24.4,127.4-0.2,188.9
		C402,314.3,360.6,369.8,299.6,382c-55.2,11.1-94.8-43.9-143.9-71.5C100.3,279.5,16,276.8,2.1,214.9
		C-12.2,151.1,48.9,97.9,98.5,55.5z"/>
	<g>
		<ellipse id="_x3C_Path_x3E__1_" class="st1" cx="204.9" cy="477.1" rx="197.3" ry="18.6"/>
		<g>
			<polygon class="st2" points="175.1,474.6 185,474.4 187.9,451.4 178,451.5 			"/>
			<polygon class="st2" points="222.5,473.8 232.2,470.9 226.2,449.1 216.5,452 			"/>
			<path class="st3" d="M231.9,468l-10.8,5.5c-0.4,0.2-0.5,0.6-0.4,1l2.3,8.7c0.2,0.9,1.3,1.3,2.1,0.9c3.4-1.8,5.9-3.3,10.2-5.6
				c2.7-1.4,10.9-5.3,14.6-7.2c3.6-1.9,2.3-5.8,0.6-5.4c-7.6,2-13.7,2.6-16.9,1.8C233,467.6,232.4,467.7,231.9,468z"/>
			<path class="st3" d="M185.3,473.3l-10.8,0.2c-0.4,0-0.8,0.3-0.8,0.7l-1.8,8.8c-0.2,0.9,0.5,1.8,1.5,1.7c3.9-0.1,9.5-0.5,14.5-0.5
				c5.8-0.1,7.4,0.2,14.1,0c4.1-0.1,5.1-4.2,3.4-4.5c-7.8-1.6-10.8-1.7-17.6-5.7C186.9,473.5,186.1,473.2,185.3,473.3z"/>
			<path class="st2" d="M200.3,172.5c2.2,4.5,4.8,9.3,7.4,13.9c2.6,4.6,5.2,9.1,8.1,13.4c0.7,1,1.4,2.1,2.2,3.1l1.9,2.5
				c0.4,0.5,0.6,0.7,0.7,0.9c0,0.1,0.1,0.3,0.6,0.3c0.9,0.1,2.9-0.9,4.7-2.3c0.9-0.7,1.8-1.5,2.7-2.3c0.9-0.8,1.8-1.8,2.6-2.6
				l6.5,3.7c-0.6,1.6-1.2,2.9-2,4.2c-0.7,1.4-1.5,2.7-2.5,4c-1,1.3-2.1,2.5-3.5,3.8c-1.4,1.2-3,2.3-5.2,3.1
				c-2.1,0.8-4.9,1.1-7.5,0.4c-2.6-0.6-4.7-2-6.3-3.4c-0.4-0.4-0.8-0.7-1.1-1.1l-0.5-0.5l-0.4-0.4l-1.4-1.6c-1-1.1-1.9-2.2-2.8-3.4
				c-3.6-4.6-6.8-9.3-9.7-14.1c-1.5-2.4-2.9-4.9-4.2-7.4c-1.3-2.5-2.6-5-3.8-7.7L200.3,172.5z"/>
			<g>
				<g>
					<path class="st4" d="M182.5,172.6c-2.7,9.1,16.2,33.9,16.2,33.9l19-12.2c0,0-5.6-12.7-13.2-22.3
						C196.7,162.1,185.5,162.6,182.5,172.6z"/>
				</g>
			</g>
			<path class="st5" d="M194.1,183.3c3.9,1.7,9.7,11.1,12.6,18l-8.1,5.2c0,0-7.3-9.6-12.1-19C189.1,184.7,192,182.4,194.1,183.3z"/>
			<path class="st2" d="M230,201.2l6.9-11.1l6,9.6c0,0-2.2,4.2-6.6,5.4L230,201.2z"/>
			<path class="st2" d="M246.4,190.2l0,3.4c0,1.1-0.4,2.1-1,2.9l-2.5,3.1l-6-9.6l6.2-2.3C244.7,187.2,246.4,188.4,246.4,190.2z"/>
			<path class="st4" d="M239.7,204.4l-8-0.1c-1.4,0-2.4-1.4-2.1-2.7l5.3-19.7l8.1,0.1c1.4,0,2.4,1.3,2,2.7L239.7,204.4z"/>
			<path class="st3" d="M240.8,204.4l-8-0.1c-1.4,0-2.4-1.4-2.1-2.7l5.3-19.7l8,0.1c1.4,0,2.4,1.4,2.1,2.7L240.8,204.4z"/>
			<polygon class="st6" points="187.9,451.4 186.4,463.3 176.5,463.4 178,451.5 			"/>
			<polygon class="st6" points="216.5,452 226.2,449.1 229.3,460.3 219.6,463.3 			"/>
			<g>
				<g>
					<path class="st4" d="M140.6,177.4c8.1,34.9,6.3,69.5,7.2,77c7.8-0.6,37-2.7,52.9-3.9c5.1-56.7-7-85.5-7-85.5s-3.4-0.7-8-1.1
						c-1.5-0.1-3-0.3-4.6-0.4c-0.9,0-1.8-0.1-2.7-0.1c-6-0.1-15.8,0.9-22.5,1.7c-1.4,0.2-2.9,0.4-4.2,0.6c-1.3,0.2-2.6,0.5-3.8,0.7
						c-0.1,0-0.1,0-0.2,0C142.6,167.4,139.4,172.4,140.6,177.4z"/>
				</g>
			</g>
			<path class="st5" d="M149.6,184.7l-6.1,7.8c0,0.1,0,0.2,0,0.3c0.9,5.3,1.5,10.5,2,15.5C151.3,201.1,150.5,188.2,149.6,184.7z"/>
			<path class="st2" d="M158.5,149.5c1.3,5.3,1.2,11.2-2.6,15.5c4.2,3.6,9.7,7.8,18.3,7.4c8.6-0.3,6.7-6.1,4.2-9.1
				c-7.4-1.2-7.4-6-7.4-11.2c0-1.1-0.7-2.1-1.8-2.4l-8.1-2.6C159.5,146.6,158.1,148,158.5,149.5z"/>
			<path class="st6" d="M170.9,152.4l-8.1,1c0.2,0.4,0.4,0.7,0.6,1c1.5,2.5,5,4.1,8.5,4.7C171,157.3,170.9,154.9,170.9,152.4z"/>
			<path class="st3" d="M181.5,131.2c4.5,0.8,13-4.4,11-11.2c-2.5,3.2-11,2.1-11,2.1L181.5,131.2L181.5,131.2z"/>
			<path class="st3" d="M163.8,138.6c0.5,4.6-5.1,12.7-11.9,10.3c3.3-2.3,2.8-10.9,2.8-10.9L163.8,138.6z"/>
			<path class="st2" d="M157.2,129.7c-1.2,9.8-2.4,15.4,1.5,21.3c5.9,8.8,18.7,6.6,22.8-2.6c3.7-8.3,5.1-22.9-3.7-28.5
				C169.2,114.4,158.4,119.9,157.2,129.7z"/>
			<path class="st3" d="M155.8,139.5c2.4,2.5,8.9-7.8,7.8-11.4c2.5,1.1,7.2-1,6.9-5.1c7.4,4,18.1,7.1,18.2-0.1
				c0.2-7.1-6.6-12.4-13.2-13c0.8,2.1-1.3,3-5.6,2.1c-4.3-0.9-20.8-8.5-19,6.7C144.8,119.2,144,127,155.8,139.5z"/>
			<path class="st2" d="M151,135.8c0.3,2.6,1.9,4.9,3.6,6.2c2.6,2,4.3-0.1,4.5-3.2c0.2-2.8,0-7.2-3.1-7.9
				C152.9,130.1,150.6,132.8,151,135.8z"/>
			<path class="st3" d="M165.9,253l34.8-2.6c0,0,4.5,71.4,4.2,101.7c-0.3,31.5-14.8,108.7-14.8,108.7l-16.8,0.3
				c0,0,1.3-74.9,1.3-105.8C174.6,313.6,165.9,253,165.9,253"/>
			<path class="st6" d="M179.4,327.3c0.5,2.1,13.4,60,17.6,93.8c2.2-14.1,4.5-29.8,6.1-43.7L179.4,327.3z"/>
			<path class="st3" d="M181.9,251.8c0,0,26.5,64.9,32.5,93.4c6.5,31.2,17,110,17,110l-18,2.8c0,0-13.6-58.9-21.2-89
				c-8.7-34.3-42.9-88.6-44.4-114.6C181.9,251.8,181.9,251.8,181.9,251.8z"/>
			<polygon class="st4" points="233.7,456.7 211.3,461.9 208.5,453.3 232.9,449.2 			"/>
			<polygon class="st4" points="192.2,461.3 172.2,461.6 172.1,455.1 194.5,454.4 			"/>
			<path class="st3" d="M170.8,134.8c-0.1,0.8,0.1,1.5,0.7,1.6c0.5,0.1,1.1-0.5,1.2-1.2s-0.1-1.5-0.7-1.6
				C171.5,133.4,170.9,134,170.8,134.8z"/>
			<path class="st3" d="M180.5,136.8c-0.1,0.8,0.1,1.5,0.7,1.6c0.5,0.1,1.1-0.5,1.2-1.2s-0.1-1.5-0.7-1.6
				C181.2,135.5,180.7,136,180.5,136.8z"/>
			<path class="st7" d="M177.3,136.6c0,0,0.9,4.9,2.5,7.4c-1.6,1-3.9,0-3.9,0L177.3,136.6z"/>
			<path class="st3" d="M174.3,146.5c-3-0.7-4.2-2.9-4.3-3s0-0.3,0.1-0.3c0.1-0.1,0.3,0,0.3,0.1c0,0,1.4,2.6,4.9,2.9
				c0.1,0,0.2,0.1,0.2,0.3s-0.1,0.2-0.3,0.2C174.9,146.6,174.6,146.6,174.3,146.5z"/>
			<path class="st3" d="M169.8,131.2c-0.1,0-0.1-0.1-0.2-0.1c-0.2-0.2-0.2-0.5,0-0.7c1.9-1.8,4-1.2,4.1-1.2c0.2,0.1,0.4,0.3,0.3,0.6
				c-0.1,0.2-0.3,0.4-0.6,0.3l0,0c-0.1,0-1.7-0.4-3.2,1C170.2,131.2,170,131.3,169.8,131.2z"/>
			<path class="st3" d="M185.8,134.4c-0.1,0-0.3-0.2-0.3-0.3c-0.5-2-2.1-2.5-2.2-2.6c-0.2-0.1-0.4-0.4-0.3-0.6
				c0.1-0.2,0.3-0.4,0.6-0.3c0.1,0,2.1,0.7,2.8,3.2c0.1,0.2-0.1,0.5-0.3,0.6C186,134.4,185.9,134.4,185.8,134.4z"/>
			<g>
				<path class="st8" d="M235.6,468c-0.8,0.4-1.8,0.7-2.5,0.9c-0.1,0-0.2,0-0.2-0.1c-0.1-0.1-0.1-0.2,0-0.3c0.2-0.4,2.2-3.6,3.4-3.6
					c0.2,0,0.5,0.1,0.7,0.4c0.3,0.5,0.3,0.9,0.1,1.3C236.8,467.2,236.2,467.7,235.6,468z M233.6,468.3c1.6-0.5,2.8-1.1,3-1.8
					c0.1-0.3,0.1-0.6-0.1-0.9c-0.1-0.2-0.2-0.2-0.3-0.2C235.6,465.4,234.4,467,233.6,468.3z"/>
				<path class="st8" d="M233.2,468.9c0,0-0.1,0-0.1,0c-0.1,0-0.2-0.1-0.2-0.1c0-0.1-1.1-2.8-0.6-4.1c0.1-0.4,0.4-0.6,0.8-0.7l0,0
					c0.5-0.2,0.8,0,1,0.2C234.7,465,233.9,467.8,233.2,468.9C233.2,468.8,233.2,468.9,233.2,468.9z M233.1,464.4
					c-0.2,0.1-0.3,0.2-0.4,0.4c-0.4,0.9,0.1,2.5,0.4,3.3c0.5-1.2,0.9-3.2,0.5-3.7C233.6,464.3,233.5,464.2,233.1,464.4L233.1,464.4
					C233.2,464.3,233.1,464.4,233.1,464.4z"/>
				<path class="st8" d="M186.2,474.6c-0.1,0-0.1-0.1-0.2-0.2c0-0.1,0-0.2,0.1-0.2c0.5-0.2,4.4-2.3,5.6-1.7c0.2,0.1,0.4,0.3,0.4,0.6
					l0,0c0,0.5-0.1,0.8-0.4,1.2C190.7,475.3,187.9,474.9,186.2,474.6C186.3,474.6,186.3,474.6,186.2,474.6z M191.5,472.9
					c-0.8-0.2-2.9,0.6-4.5,1.4c2.2,0.3,3.8,0.2,4.4-0.3c0.2-0.2,0.3-0.4,0.3-0.8C191.8,473.1,191.7,473,191.5,472.9
					C191.6,472.9,191.6,472.9,191.5,472.9z"/>
				<path class="st8" d="M186.2,474.6C186.2,474.6,186.2,474.6,186.2,474.6c-0.1-0.1-0.2-0.2-0.2-0.2c0-0.1,0.2-2.8,1.5-3.8
					c0.4-0.3,0.8-0.5,1.3-0.4l0,0c0.6,0.1,0.8,0.4,0.9,0.6c0.2,1.1-2.1,3.3-3.3,3.9C186.4,474.6,186.3,474.6,186.2,474.6z
					 M189.1,470.6c-0.1,0-0.1,0-0.2,0l0,0c-0.4,0-0.7,0.1-1,0.3c-0.8,0.7-1.1,2.3-1.3,3.1c1.2-0.8,2.8-2.5,2.7-3.1
					C189.3,470.8,189.3,470.7,189.1,470.6z M188.8,470.3L188.8,470.3L188.8,470.3z"/>
			</g>
			<g>
				<path class="st2" d="M156.4,180.5c-3.3,5.8-6.6,12.1-9.5,18.2c-3,6.1-5.7,12.4-7.7,18.6c-0.2,0.8-0.4,1.5-0.6,2.3
					c-0.1,0.4-0.2,0.8-0.3,1.1c0,0.2-0.1,0.4-0.1,0.6c-0.1,0.8-0.1,1.9,0.1,3.1c0.5,2.4,1.7,5.3,3.2,8c3.1,5.5,7.4,11.1,11.9,16.1
					l-4.8,5.7c-6.3-4.3-11.9-9.1-16.7-15.4c-2.4-3.2-4.6-6.7-6-11.1c-0.7-2.2-1.2-4.7-1-7.5c0-0.7,0.1-1.4,0.2-2.1
					c0.1-0.6,0.2-1,0.3-1.5c0.2-1,0.4-2,0.6-2.9c1.8-7.6,4.5-14.5,7.5-21.3c3-6.8,6.3-13.1,10.2-19.6L156.4,180.5z"/>
				<g>
					<g>
						<path class="st4" d="M146.1,167c-9.1,2.5-18.1,28.2-18.1,28.2l22,6.1c0,0,4.9-6.1,9.2-17.6C163.9,171.2,157.2,164,146.1,167z"
							/>
					</g>
				</g>
				<path class="st2" d="M149.1,246.7l10.1,2.6l-4,9.5c0,0-9-1.9-9-6.8L149.1,246.7z"/>
				<polygon class="st2" points="163,255.7 160.1,263.2 155.2,258.8 159.2,249.3 				"/>
			</g>
		</g>
		<g>
			<path class="st4" d="M286.5,111.5h-43.1c-2.8,0-5,2.2-5,5v43.1c0,2.8,2.2,5,5,5l0,0h43.1c2.8,0,5-2.2,5-5l0,0v-43.1
				C291.4,113.7,289.2,111.5,286.5,111.5z M288.1,144l-7.1-7.1c-0.6-0.6-1.7-0.6-2.3,0l-8.8,8.8l-10.4-10.4c-0.6-0.6-1.7-0.6-2.3,0
				l-15.4,15.4v-34.1c0-0.9,0.7-1.7,1.7-1.7h43.1c0.9,0,1.7,0.7,1.7,1.7L288.1,144L288.1,144z"/>
			<path class="st4" d="M268.2,119.8c-3.7,0-6.6,3-6.6,6.6c0,3.7,3,6.6,6.6,6.6s6.6-3,6.6-6.6C274.9,122.8,271.9,119.8,268.2,119.8z
				 M268.2,129.7c-1.8,0-3.3-1.5-3.3-3.3c0-1.8,1.5-3.3,3.3-3.3c1.8,0,3.3,1.5,3.3,3.3C271.6,128.3,270.1,129.7,268.2,129.7z"/>
		</g>
	</g>
</g>
</svg>
