<svg xmlns="http://www.w3.org/2000/svg" viewBox="0 0 193.43 52.83"><defs><style>.cls-1{fill:#fff;}</style></defs><g id="Capa_2" data-name="Capa 2"><g id="Layer_1" data-name="Layer 1"><path class="cls-1" d="M43.18,0h0a8.11,8.11,0,0,1,8.11,8.11v43h0A8.11,8.11,0,0,1,43.18,43Z"/><path class="cls-1" d="M138.33,43.59,155.7,25.28v-.14H145.63a6.49,6.49,0,0,1-6.49-6.49h19A7.37,7.37,0,0,1,165.5,26h0L147.93,44.6h11.89a6.49,6.49,0,0,1,6.49,6.49H145.83a7.5,7.5,0,0,1-7.5-7.5Z"/><path class="cls-1" d="M34.56,33.15a11.43,11.43,0,0,0-2.12-3.51,11.07,11.07,0,0,0-3.28-2.5A12.5,12.5,0,0,0,25,25.89v-.15A12.75,12.75,0,0,0,31,22a9.88,9.88,0,0,0,2.29-6.69A11.12,11.12,0,0,0,32,9.74,11.16,11.16,0,0,0,28.68,6,13.89,13.89,0,0,0,24,3.89a22.94,22.94,0,0,0-5.34-.64H0V43.41a7.68,7.68,0,0,0,7.68,7.68h9.55a33,33,0,0,0,6.66-.67,17.49,17.49,0,0,0,5.81-2.26A12.18,12.18,0,0,0,33.79,44a12.56,12.56,0,0,0,1.55-6.52A11.47,11.47,0,0,0,34.56,33.15Zm-26-22.6h7c3.24,0,5.59.51,7.05,1.51a5.27,5.27,0,0,1,2.21,4.63,5.26,5.26,0,0,1-2.13,4.37c-1.42,1.1-3.54,1.65-6.39,1.65H11a2.48,2.48,0,0,1-2.48-2.5V10.55Zm17.29,30a6.64,6.64,0,0,1-2.57,2.12,10.35,10.35,0,0,1-3.41.94,28.64,28.64,0,0,1-3.47.2H11a2.47,2.47,0,0,1-2.47-2.47V30h8.17q5.2,0,7.66,1.48c1.65,1,2.47,2.74,2.47,5.27A6.16,6.16,0,0,1,25.81,40.52Z"/><path class="cls-1" d="M132.73,30.4v.08c0,.38,0,.77,0,1.15a22.28,22.28,0,0,1-22.12,21.2h-.14a22.24,22.24,0,0,1-14.61-5.45s0,0,0,0a22.25,22.25,0,0,1-7.64-16.8h5a1.1,1.1,0,0,0,.26-.06,1,1,0,0,0,.68-1v0a1,1,0,0,0-.31-.71l-.25-.26L89.14,24h0l-6.91-7.11-.13-.13L82,16.68a1,1,0,0,0-1.46,0l-.09.09-.12.12L75,22.36l0,0-5.94,6.13-.18.19-.15.15a1,1,0,0,0-.23.63v0a1,1,0,0,0,.68,1,.76.76,0,0,0,.26.06h4.8c0,.21,0,.42,0,.63s0,.59,0,.89,0,.54,0,.81,0,.64.08.95a37.15,37.15,0,0,0,4.77,14.91,2,2,0,0,0,.11.2h0a3.07,3.07,0,0,1,.17.31,2.16,2.16,0,0,1,.31.88,1.48,1.48,0,0,1,0,.21,1,1,0,0,1,0,.17,2.18,2.18,0,0,1-2,2h-.42l-.15,0-.19,0a22.3,22.3,0,0,1-18.15-21.9c0-.21,0-.43,0-.64s0-.38,0-.57c0-.36,0-.71.08-1.06q.08-.8.21-1.56A22.3,22.3,0,0,1,81.11,8.3h.1a22.18,22.18,0,0,1,14.57,5.42l0,0a22.32,22.32,0,0,1,7.49,13.88c0,.18,0,.36.06.54h0c0,.38.07.77.09,1.16,0,.2,0,.41,0,.61s0,.38,0,.58v.06H98.65a1.05,1.05,0,0,0-1.05,1v.11a1,1,0,0,0,.07.35.88.88,0,0,0,.16.28l.14.14,4.52,4.66h0l7.1,7.32.14.14,0,0a1,1,0,0,0,.62.21,1.12,1.12,0,0,0,.63-.2h0l0,0a1.21,1.21,0,0,0,.16-.16l5.37-5.53,0,0,6.21-6.42.15-.15a1,1,0,0,0,.15-.26.93.93,0,0,0,.07-.33v-.06a1,1,0,0,0-1-1h-4.78v-.06c0-.19,0-.38,0-.58q0-.63-.06-1.23h0c0-.39-.06-.77-.09-1.15A37.37,37.37,0,0,0,112,11.87a1.23,1.23,0,0,1-.12-.26,2.07,2.07,0,0,1-.13-.62v-.23A2.19,2.19,0,0,1,114,8.64h.22l.22,0,.48.09h0a22.33,22.33,0,0,1,17.62,18.9c0,.31.07.62.1.94s.05.65.06,1c0,.13,0,.26,0,.38A1,1,0,0,1,132.73,30.4Z"/><path class="cls-1" d="M172.83,22.39a1.12,1.12,0,0,1,.35-.82,1.14,1.14,0,0,1,.84-.34,1.18,1.18,0,0,1,.83.33,1.05,1.05,0,0,1,.36.8,1.12,1.12,0,0,1-.35.82,1.2,1.2,0,0,1-1.29.25,1.36,1.36,0,0,1-.38-.24,1,1,0,0,1-.26-.36A1,1,0,0,1,172.83,22.39Z"/><path class="cls-1" d="M177.23,16.29h.62a1.07,1.07,0,0,1,1.07,1.07h0a2.27,2.27,0,0,1,1-.95,3.37,3.37,0,0,1,1.41-.3,3.64,3.64,0,0,1,1.47.29,3.1,3.1,0,0,1,1.11.8,3.38,3.38,0,0,1,.7,1.19,4.44,4.44,0,0,1,.24,1.47,4.13,4.13,0,0,1-.25,1.47,3.56,3.56,0,0,1-.71,1.19,3.18,3.18,0,0,1-1.09.79,3.7,3.7,0,0,1-2.29.19,2.84,2.84,0,0,1-.68-.27,2.53,2.53,0,0,1-.51-.35,2.25,2.25,0,0,1-.34-.36h0v4.3h0A1.78,1.78,0,0,1,177.23,25Zm5.91,3.57a2.36,2.36,0,0,0-.14-.8,1.77,1.77,0,0,0-.42-.68,2,2,0,0,0-.66-.48,2.24,2.24,0,0,0-1.76,0,2,2,0,0,0-.66.48,2.27,2.27,0,0,0-.42.68,2.45,2.45,0,0,0-.14.8,2.4,2.4,0,0,0,.14.8,1.77,1.77,0,0,0,.42.68,2,2,0,0,0,.66.48,2.24,2.24,0,0,0,1.76,0,2,2,0,0,0,.66-.48,2.27,2.27,0,0,0,.42-.68A2.36,2.36,0,0,0,183.14,19.86Z"/><path class="cls-1" d="M188,20.48a1.84,1.84,0,0,0,.62,1.25,2,2,0,0,0,1.29.45,2.14,2.14,0,0,0,1.12-.27h0a1.62,1.62,0,0,1,1.81.09l.25.19a3.6,3.6,0,0,1-1.4,1.1,4.12,4.12,0,0,1-1.62.33,4.31,4.31,0,0,1-1.52-.27,3.54,3.54,0,0,1-2-1.94,4.1,4.1,0,0,1,0-3.08,3.54,3.54,0,0,1,2-1.94,4.27,4.27,0,0,1,1.52-.27,3.51,3.51,0,0,1,1.36.26,2.93,2.93,0,0,1,1.06.75,3.47,3.47,0,0,1,.68,1.21,5.23,5.23,0,0,1,.24,1.66h0a.49.49,0,0,1-.49.49Zm3.66-1.33a1.65,1.65,0,0,0-.49-1.24,1.85,1.85,0,0,0-1.32-.45,1.71,1.71,0,0,0-1.27.46,2.08,2.08,0,0,0-.57,1.23Z"/></g></g></svg>