<?xml version="1.0" encoding="utf-8"?>
<!-- Generator: Adobe Illustrator 24.2.1, SVG Export Plug-In . SVG Version: 6.00 Build 0)  -->
<svg version="1.1" id="Layer_1" xmlns="http://www.w3.org/2000/svg" xmlns:xlink="http://www.w3.org/1999/xlink" x="0px" y="0px"
	 viewBox="0 0 193.4 52.8" style="enable-background:new 0 0 193.4 52.8;" xml:space="preserve">
<style type="text/css">
	.st0{fill:#FFFFFF;}
	.st1{fill:url(#SVGID_1_);}
</style>
<g>
	<g>
		<g>
			<g>
				<g>
					<g>
						<g>
							<path class="st0" d="M43.2,0L43.2,0c4.5,0,8.1,3.6,8.1,8.1v43l0,0c-4.5,0-8.1-3.6-8.1-8.1V0z"/>
							<path class="st0" d="M138.3,43.6l17.4-18.3v-0.1h-10.1c-3.6,0-6.5-2.9-6.5-6.5l0,0h19c4.1,0,7.4,3.3,7.4,7.4l0,0l-17.6,18.6
								h11.9c3.6,0,6.5,2.9,6.5,6.5l0,0h-20.5C141.7,51.1,138.3,47.7,138.3,43.6L138.3,43.6z"/>
							<path class="st0" d="M34.6,33.2c-0.5-1.3-1.2-2.5-2.1-3.5c-0.9-1-2-1.8-3.3-2.5c-1.3-0.6-2.7-1.1-4.1-1.2v-0.1
								c2.5-0.8,4.5-2,6-3.8c1.5-1.8,2.3-4,2.3-6.7c0-2.2-0.4-4-1.3-5.5c-0.9-1.5-2-2.8-3.4-3.8c-1.4-1-2.9-1.6-4.7-2.1
								c-1.8-0.4-3.5-0.6-5.3-0.6H0v40.2c0,4.2,3.4,7.7,7.7,7.7h9.6c2.2,0,4.5-0.2,6.7-0.7c2.2-0.5,4.1-1.2,5.8-2.3
								c1.7-1.1,3.1-2.5,4.1-4.2c1-1.7,1.6-3.9,1.6-6.5C35.3,35.9,35.1,34.5,34.6,33.2z M8.5,10.6h7c3.2,0,5.6,0.5,7.1,1.5
								c1.5,1,2.2,2.6,2.2,4.6c0,1.8-0.7,3.3-2.1,4.4s-3.5,1.6-6.4,1.6H11c-1.4,0-2.5-1.1-2.5-2.5L8.5,10.6L8.5,10.6z M25.8,40.5
								c-0.7,0.9-1.5,1.6-2.6,2.1c-1,0.5-2.2,0.8-3.4,0.9c-1.2,0.1-2.4,0.2-3.5,0.2H11c-1.4,0-2.5-1.1-2.5-2.5V30h8.2
								c3.5,0,6,0.5,7.7,1.5c1.6,1,2.5,2.7,2.5,5.3C26.8,38.4,26.5,39.6,25.8,40.5z"/>
						</g>
					</g>
				</g>
			</g>
		</g>
	</g>
	
		<linearGradient id="SVGID_1_" gradientUnits="userSpaceOnUse" x1="58.9299" y1="75.1048" x2="132.73" y2="75.1048" gradientTransform="matrix(1 0 0 -1 0 105.6698)">
		<stop  offset="0" style="stop-color:#0047BC"/>
		<stop  offset="2.530000e-02" style="stop-color:#044CBD"/>
		<stop  offset="0.354" style="stop-color:#2F82CC"/>
		<stop  offset="0.6376" style="stop-color:#4FAAD6"/>
		<stop  offset="0.8622" style="stop-color:#63C2DD"/>
		<stop  offset="1" style="stop-color:#6ACBDF"/>
	</linearGradient>
	<path class="st1" d="M132.7,30.4L132.7,30.4c0,0.5,0,0.8,0,1.2c-0.6,11.8-10.2,21.1-22.1,21.2h-0.1c-5.6,0-10.7-2.1-14.6-5.5
		c0,0,0,0,0,0c-4.7-4.1-7.6-10.1-7.6-16.8h4.8c0,0,0.1,0,0.1,0c0,0,0.1,0,0.1,0c0.1,0,0.2,0,0.3-0.1c0.4-0.1,0.7-0.5,0.7-1v0
		c0-0.3-0.1-0.5-0.3-0.7l-0.2-0.3L89.1,24l0,0l-6.9-7.1l-0.1-0.1L82,16.7c-0.2-0.2-0.5-0.3-0.7-0.3c-0.3,0-0.5,0.1-0.7,0.3l-0.1,0.1
		l-0.1,0.1L75,22.4l0,0l-5.9,6.1l-0.2,0.2l-0.1,0.1c-0.1,0.2-0.2,0.4-0.2,0.6v0c0,0.5,0.3,0.8,0.7,1c0.1,0,0.2,0.1,0.3,0.1
		c0,0,0.1,0,0.1,0c0,0,0.1,0,0.1,0h4.6c0,0.2,0,0.4,0,0.6c0,0.3,0,0.6,0,0.9c0,0.3,0,0.5,0,0.8c0,0.3,0,0.6,0.1,1
		c0.5,5.4,2.2,10.4,4.8,14.9c0,0.1,0.1,0.1,0.1,0.2c0,0,0,0,0,0c0.1,0.1,0.1,0.2,0.2,0.3c0.2,0.3,0.3,0.6,0.3,0.9c0,0.1,0,0.1,0,0.2
		c0,0.1,0,0.1,0,0.2c-0.1,1.1-0.9,1.9-2,2l0,0c-0.1,0-0.1,0-0.2,0c-0.1,0-0.1,0-0.2,0c0,0-0.1,0-0.1,0c-0.1,0-0.1,0-0.2,0
		c-10.3-1.9-18.1-11-18.1-21.9c0-0.2,0-0.4,0-0.6c0-0.2,0-0.4,0-0.6c0-0.4,0-0.7,0.1-1.1c0-0.5,0.1-1,0.2-1.6
		C61.1,16.3,70.2,8.3,81.1,8.3h0.1c5.6,0,10.7,2,14.6,5.4c0,0,0,0,0,0c4,3.5,6.8,8.4,7.5,13.9c0,0.2,0,0.4,0.1,0.5l0,0
		c0,0.4,0.1,0.8,0.1,1.2c0,0.2,0,0.4,0,0.6c0,0.2,0,0.4,0,0.6v0.1h-4.8c-0.6,0-1,0.4-1,1v0.1c0,0,0,0,0,0c0,0.1,0,0.2,0.1,0.4
		c0,0.1,0.1,0.2,0.2,0.3l0.1,0.1l4.5,4.7l0,0l7.1,7.3l0.1,0.1c0,0,0,0,0,0c0.2,0.1,0.4,0.2,0.6,0.2c0.2,0,0.5-0.1,0.6-0.2l0,0
		c0,0,0,0,0,0c0.1,0,0.1-0.1,0.2-0.2l5.4-5.5l0,0l6.2-6.4l0.1-0.1c0.1-0.1,0.1-0.2,0.1-0.3c0-0.1,0.1-0.2,0.1-0.3c0,0,0,0,0-0.1
		c0-0.6-0.5-1-1-1h-4.8c0,0,0,0,0-0.1c0-0.2,0-0.4,0-0.6c0-0.4,0-0.8-0.1-1.2l0,0c0-0.4-0.1-0.8-0.1-1.1c-0.5-5.7-2.4-11-5.2-15.7
		c0-0.1-0.1-0.2-0.1-0.3c-0.1-0.2-0.1-0.4-0.1-0.6c0,0,0-0.1,0-0.1c0,0,0,0,0-0.1v-0.1c0-1.2,1-2.1,2.2-2.1c0.1,0,0.1,0,0.2,0
		s0.1,0,0.2,0c0.2,0,0.3,0.1,0.5,0.1l0,0c9.2,1.9,16.4,9.5,17.6,18.9c0,0.3,0.1,0.6,0.1,0.9c0,0.3,0,0.6,0.1,1c0,0.1,0,0.3,0,0.4
		C132.7,30.1,132.7,30.2,132.7,30.4z"/>
	<g>
		<g>
			<g>
				<g>
					<g>
						<path class="st0" d="M172.8,22.4c0-0.3,0.1-0.6,0.4-0.8s0.5-0.3,0.8-0.3c0.3,0,0.6,0.1,0.8,0.3s0.4,0.5,0.4,0.8
							c0,0.3-0.1,0.6-0.4,0.8s-0.5,0.3-0.8,0.3c-0.2,0-0.3,0-0.5-0.1s-0.3-0.1-0.4-0.2s-0.2-0.2-0.3-0.4
							C172.9,22.7,172.8,22.6,172.8,22.4z"/>
						<path class="st0" d="M177.2,16.3h0.6c0.6,0,1.1,0.5,1.1,1.1l0,0h0c0.3-0.4,0.6-0.8,1-1s0.9-0.3,1.4-0.3c0.5,0,1,0.1,1.5,0.3
							c0.4,0.2,0.8,0.5,1.1,0.8c0.3,0.3,0.5,0.7,0.7,1.2s0.2,1,0.2,1.5c0,0.5-0.1,1-0.2,1.5c-0.2,0.5-0.4,0.9-0.7,1.2
							c-0.3,0.3-0.7,0.6-1.1,0.8c-0.4,0.2-0.9,0.3-1.4,0.3c-0.3,0-0.6,0-0.9-0.1s-0.5-0.2-0.7-0.3c-0.2-0.1-0.4-0.2-0.5-0.4
							c-0.1-0.1-0.2-0.2-0.3-0.4h0v4.3l0,0c-1,0-1.8-0.8-1.8-1.8V16.3z M183.1,19.9c0-0.3,0-0.5-0.1-0.8c-0.1-0.3-0.2-0.5-0.4-0.7
							c-0.2-0.2-0.4-0.4-0.7-0.5c-0.3-0.1-0.5-0.2-0.9-0.2c-0.3,0-0.6,0.1-0.9,0.2s-0.5,0.3-0.7,0.5s-0.3,0.4-0.4,0.7
							c-0.1,0.3-0.1,0.5-0.1,0.8c0,0.3,0,0.5,0.1,0.8c0.1,0.3,0.2,0.5,0.4,0.7c0.2,0.2,0.4,0.4,0.7,0.5c0.3,0.1,0.5,0.2,0.9,0.2
							c0.3,0,0.6-0.1,0.9-0.2s0.5-0.3,0.7-0.5s0.3-0.4,0.4-0.7C183.1,20.4,183.1,20.1,183.1,19.9z"/>
						<path class="st0" d="M188,20.5c0.1,0.5,0.3,1,0.6,1.2c0.4,0.3,0.8,0.5,1.3,0.5c0.5,0,0.8-0.1,1.1-0.3l0,0
							c0.6-0.3,1.3-0.3,1.8,0.1l0.2,0.2c-0.4,0.5-0.9,0.9-1.4,1.1s-1.1,0.3-1.6,0.3c-0.5,0-1-0.1-1.5-0.3c-0.5-0.2-0.9-0.4-1.2-0.8
							c-0.4-0.3-0.6-0.7-0.8-1.2s-0.3-1-0.3-1.5c0-0.6,0.1-1.1,0.3-1.5c0.2-0.5,0.5-0.9,0.8-1.2c0.4-0.3,0.8-0.6,1.2-0.8
							c0.5-0.2,1-0.3,1.5-0.3c0.5,0,1,0.1,1.4,0.3c0.4,0.2,0.8,0.4,1.1,0.8c0.3,0.3,0.5,0.7,0.7,1.2c0.2,0.5,0.2,1,0.2,1.7l0,0
							c0,0.3-0.2,0.5-0.5,0.5H188z M191.7,19.2c0-0.5-0.2-0.9-0.5-1.2c-0.3-0.3-0.8-0.5-1.3-0.5c-0.5,0-1,0.1-1.3,0.5
							s-0.5,0.7-0.6,1.2H191.7z"/>
					</g>
				</g>
			</g>
		</g>
	</g>
</g>
</svg>
